<svg xmlns="http://www.w3.org/2000/svg" width="32" height="32" fill="none" viewBox="0 0 32 32"><path fill="#2D3748" d="M21.639 8.785c-2.442 0-3.473 1.165-5.174 1.165-1.743 0-3.072-1.157-5.188-1.157-2.07 0-4.279 1.264-5.68 3.418-1.97 3.037-1.636 8.757 1.553 13.63 1.141 1.744 2.664 3.7 4.662 3.721h.037c1.736 0 2.252-1.137 4.642-1.15h.036c2.354 0 2.827 1.144 4.556 1.144h.036c1.998-.021 3.603-2.189 4.744-3.927.821-1.25 1.126-1.877 1.756-3.29-4.613-1.751-5.354-8.291-.792-10.798-1.393-1.744-3.35-2.754-5.194-2.754l.006-.002Z"/><path fill="#2D3748" d="M21.101 2.439c-1.453.099-3.148 1.024-4.141 2.232-.901 1.094-1.642 2.718-1.352 4.293h.117c1.547 0 3.131-.932 4.056-2.126.891-1.136 1.567-2.747 1.32-4.399Z"/></svg>