<svg xmlns="http://www.w3.org/2000/svg" width="12" height="12" fill="none" viewBox="0 0 12 12">
  <g clip-path="url(#a)">
    <path fill="#fff" d="M9.972 3.675a.086.086 0 0 0 .031-.117.086.086 0 0 0-.03-.031L6.69 1.62a1.378 1.378 0 0 0-1.382 0l-3.28 1.907a.086.086 0 0 0 0 .148l3.929 2.312a.086.086 0 0 0 .087 0l3.928-2.312ZM1.66 4.26a.086.086 0 0 0-.129.075V8.07a1.031 1.031 0 0 0 .512.89l3.484 2.089a.085.085 0 0 0 .086 0 .085.085 0 0 0 .043-.075V6.64a.086.086 0 0 0-.043-.075L1.66 4.26Zm4.683 2.395v4.318a.086.086 0 0 0 .13.075l3.483-2.09a1.032 1.032 0 0 0 .512-.887V4.335a.087.087 0 0 0-.043-.075.086.086 0 0 0-.086 0L6.386 6.58a.086.086 0 0 0-.043.075Z"/>
  </g>
  <defs>
    <clipPath id="a">
      <path fill="#fff" d="M.5.748h11v11H.5z"/>
    </clipPath>
  </defs>
</svg>
