<svg xmlns="http://www.w3.org/2000/svg" width="24" height="24" fill="none" viewBox="0 0 24 24"><path fill="#2D3748" d="m22.18 10.382-.106-.45h-9.77v4.136h5.837c-.606 2.878-3.418 4.393-5.716 4.393-1.671 0-3.433-.703-4.6-1.833a6.566 6.566 0 0 1-1.959-4.636c0-1.741.783-3.484 1.922-4.63 1.139-1.146 2.86-1.787 4.57-1.787 1.959 0 3.362 1.04 3.887 1.514l2.94-2.923C18.321 3.41 15.953 1.5 12.262 1.5c-2.848 0-5.578 1.09-7.574 3.08-1.97 1.96-2.99 4.792-2.99 7.42s.965 5.32 2.874 7.294C6.612 21.399 9.5 22.5 12.474 22.5c2.707 0 5.272-1.06 7.1-2.984 1.797-1.894 2.726-4.514 2.726-7.261 0-1.156-.116-1.843-.121-1.873Z"/></svg>