<svg xmlns="http://www.w3.org/2000/svg" width="12" height="12" fill="none" viewBox="0 0 12 12"><g clip-path="url(#a)"><path fill="#fff" d="M7.646 2.135A2.211 2.211 0 0 0 6 1.435c-.648 0-1.234.247-1.65.696-.42.453-.626 1.07-.578 1.735C3.868 5.18 4.867 6.248 6 6.248c1.133 0 2.13-1.068 2.227-2.381.049-.66-.157-1.275-.58-1.732Zm2.135 8.925H2.22a.665.665 0 0 1-.52-.24.759.759 0 0 1-.155-.625c.182-1.006.748-1.85 1.637-2.444.79-.527 1.791-.816 2.819-.816 1.027 0 2.028.29 2.819.816.89.593 1.455 1.438 1.636 2.444a.758.758 0 0 1-.154.625.665.665 0 0 1-.52.24Z"/></g><defs><clipPath id="a"><path fill="#fff" d="M.5.748h11v11H.5z"/></clipPath></defs></svg>