<svg xmlns="http://www.w3.org/2000/svg" width="21" height="20" fill="none" viewBox="0 0 21 20"><g clip-path="url(#a)"><path fill="#2EBD59" d="M10.5 0C4.977 0 .5 4.477.5 10s4.477 10 10 10 10-4.477 10-10c0-5.522-4.477-10-10-10Zm4.586 14.422a.623.623 0 0 1-.857.208c-2.348-1.435-5.304-1.76-8.784-.964a.623.623 0 1 1-.278-1.216c3.809-.87 7.077-.495 9.713 1.115a.624.624 0 0 1 .206.857ZM16.31 11.7a.78.78 0 0 1-1.073.257c-2.687-1.652-6.785-2.13-9.964-1.166a.78.78 0 0 1-.973-.519.781.781 0 0 1 .52-.972c3.631-1.102 8.146-.569 11.232 1.329a.779.779 0 0 1 .258 1.071Zm.105-2.835C13.19 6.95 7.875 6.775 4.797 7.708a.935.935 0 1 1-.543-1.79c3.533-1.072 9.405-.865 13.115 1.338a.935.935 0 0 1-.954 1.609Z"/></g><defs><clipPath id="a"><path fill="#fff" d="M.5 0h20v20H.5z"/></clipPath></defs></svg>