<svg xmlns="http://www.w3.org/2000/svg" width="21" height="20" fill="none" viewBox="0 0 21 20">
  <g clip-path="url(#a)">
    <path fill="#470137" d="M4.042 0h12.917A3.539 3.539 0 0 1 20.5 3.542v12.416a3.539 3.539 0 0 1-3.54 3.542H4.042A3.539 3.539 0 0 1 .5 15.958V3.542A3.539 3.539 0 0 1 4.042 0Z"/>
    <path fill="#FF61F6" d="m11.017 5.124-2.5 4.125 2.667 4.375a.143.143 0 0 1 .016.1c-.008.034-.041.009-.091.017H9.2c-.133 0-.225-.008-.283-.092-.175-.35-.358-.691-.533-1.041a33.609 33.609 0 0 0-.567-1.05c-.2-.359-.4-.717-.6-1.084H7.2a31.45 31.45 0 0 1-.558 1.075c-.192.359-.383.717-.567 1.067-.191.35-.383.708-.575 1.05-.033.083-.1.092-.191.092H3.475c-.033 0-.058.016-.058-.025a.116.116 0 0 1 .017-.092l2.591-4.25L3.5 5.116c-.025-.033-.033-.067-.016-.083.016-.025.05-.034.083-.034h1.892c.041 0 .083.009.116.017a.236.236 0 0 1 .084.075c.158.358.341.717.533 1.075.2.358.392.708.6 1.058.2.35.383.7.558 1.059h.017c.175-.367.358-.725.542-1.075.183-.35.375-.7.566-1.05.192-.35.375-.709.559-1.05a.14.14 0 0 1 .05-.084.159.159 0 0 1 .108-.016h1.758a.077.077 0 0 1 .092.058c.008.008-.008.042-.025.058Zm3.85 8.793a4.141 4.141 0 0 1-1.792-.375 2.904 2.904 0 0 1-1.258-1.134c-.309-.508-.459-1.141-.459-1.9a3.422 3.422 0 0 1 1.784-3.05c.583-.325 1.283-.483 2.108-.483.042 0 .1 0 .175.008.075.009.158.009.258.017V4.367c0-.059.025-.092.084-.092h1.691c.042-.008.075.025.084.058v7.95c0 .15.008.317.016.5.017.175.025.342.034.484 0 .058-.025.108-.084.133a6.369 6.369 0 0 1-1.358.4 7.35 7.35 0 0 1-1.283.117Zm.816-1.667V8.583a2.132 2.132 0 0 0-.5-.058c-.325 0-.65.067-.941.217-.284.141-.525.35-.709.616-.183.267-.275.625-.275 1.059a2.33 2.33 0 0 0 .142.858c.083.225.208.425.375.592.158.15.35.266.567.333.225.075.458.108.691.108.125 0 .242-.008.35-.016.109.008.2-.009.3-.042Z"/>
  </g>
  <defs>
    <clipPath id="a">
      <path fill="#fff" d="M.5 0h20v19.5H.5z"/>
    </clipPath>
  </defs>
</svg>
