<svg xmlns="http://www.w3.org/2000/svg" width="21" height="21" fill="none" viewBox="0 0 21 21"><g clip-path="url(#a)"><path fill="#36C5F0" fill-rule="evenodd" d="M7.833.5c-1.106 0-2 .919-2 2.05 0 1.13.895 2.048 2 2.05h2V2.55c.002-1.13-.894-2.048-2-2.05Zm0 5.467H2.5c-1.105 0-2 .918-2 2.05-.002 1.13.894 2.048 2 2.05h5.333c1.105-.001 2-.919 2-2.05 0-1.132-.895-2.05-2-2.05Z" clip-rule="evenodd"/><path fill="#2EB67D" fill-rule="evenodd" d="M20.5 8.016c0-1.13-.895-2.048-2-2.05-1.106.002-2.001.92-2 2.05v2.05h2c1.105 0 2-.918 2-2.05Zm-5.333 0V2.55c0-1.13-.894-2.048-2-2.05-1.105 0-2 .919-2 2.05v5.466c-.002 1.131.894 2.049 2 2.05 1.105 0 2-.918 2-2.05Z" clip-rule="evenodd"/><path fill="#ECB22E" fill-rule="evenodd" d="M13.166 21c1.106 0 2.002-.919 2-2.05.002-1.13-.894-2.048-2-2.05h-2v2.05c0 1.13.895 2.048 2 2.05Zm0-5.467H18.5c1.105-.001 2-.92 2-2.05.002-1.131-.894-2.049-2-2.05h-5.333c-1.105 0-2.001.918-2 2.05-.001 1.13.894 2.049 2 2.05Z" clip-rule="evenodd"/><path fill="#E01E5A" fill-rule="evenodd" d="M.5 13.483c0 1.13.895 2.049 2 2.05 1.106-.001 2.002-.92 2-2.05v-2.05h-2c-1.105.001-2 .919-2 2.05Zm5.334 0v5.466C5.832 20.08 6.727 21 7.833 21s2.001-.918 2-2.049v-5.465c.002-1.131-.894-2.05-2-2.05-1.106 0-2 .917-2 2.048Z" clip-rule="evenodd"/></g><defs><clipPath id="a"><path fill="#fff" d="M.5.5h20V21H.5z"/></clipPath></defs></svg>