<svg xmlns="http://www.w3.org/2000/svg" width="12" height="12" fill="none" viewBox="0 0 12 12">
  <path fill="#fff" d="M5.186 4.34c0 .279 0 .55.088.803-.926 1.087-3.371 3.96-3.599 4.179a.433.433 0 0 0-.144.322c0 .182.112.359.206.457.142.149.748.71.86.602.33-.322.397-.408.533-.541.204-.2-.022-.608.049-.774.07-.165.146-.197.269-.223.122-.026.339.062.509.064.178.002.275-.073.408-.197.107-.1.185-.192.187-.336.004-.193-.275-.449-.067-.653.209-.204.51.133.73.108.222-.026.49-.333.519-.464.027-.131-.252-.469-.209-.66.015-.064.146-.215.245-.236.099-.022.537.148.636.126.12-.025.26-.152.374-.223a2.42 2.42 0 0 0 1.025.202c1.471 0 2.664-1.147 2.664-2.561S9.276 1.779 7.805 1.779c-1.472 0-2.62 1.147-2.62 2.56Zm3.908-.498a.687.687 0 1 1-1.375 0 .687.687 0 0 1 1.375 0Z"/>
</svg>
