<svg xmlns="http://www.w3.org/2000/svg" width="11" height="12" fill="none" viewBox="0 0 11 12"><path fill="#fff" d="M5.5 1.778a4.474 4.474 0 0 0-4.47 4.47 4.474 4.474 0 0 0 4.47 4.468 4.474 4.474 0 0 0 4.468-4.469A4.474 4.474 0 0 0 5.5 1.778Zm-1.08 2.51a1.462 1.462 0 0 1 1.08-.447c.423 0 .803.16 1.076.45.277.294.412.688.38 1.113-.064.843-.717 1.53-1.456 1.53-.74 0-1.394-.687-1.457-1.53a1.448 1.448 0 0 1 .378-1.116Zm1.08 5.74a3.769 3.769 0 0 1-2.707-1.143 2.64 2.64 0 0 1 .755-.719c.547-.35 1.24-.544 1.952-.544.711 0 1.404.193 1.951.544.297.187.554.432.756.719A3.77 3.77 0 0 1 5.5 10.028Z"/></svg>