<svg xmlns="http://www.w3.org/2000/svg" width="198" height="23" fill="none" viewBox="0 0 198 23">
  <path fill="#fff" d="M34.321 6.924h2.25l2.187 7.65 2.208-7.65h2.187L39.715 17h-1.99L34.322 6.924Zm14.944 8.005h-3.712L44.856 17h-2.202L46.25 6.924h2.379L52.197 17h-2.283l-.65-2.071Zm-.588-1.737-1.258-3.964-1.299 3.964h2.557ZM61.63 17h-2.106L55.41 9.843V17h-1.962V6.924h2.208l4.013 7.034V6.924h1.962V17Zm6.31 0H63.6V6.924h4.34c.625.009 1.144.082 1.559.219a3.326 3.326 0 0 1 1.716 1.278c.35.501.59 1.044.718 1.627a7.81 7.81 0 0 1 .191 1.668c0 1.34-.269 2.474-.807 3.404-.729 1.253-1.854 1.88-3.377 1.88Zm1.565-7.506c-.324-.547-.964-.82-1.921-.82h-1.941v6.576h1.941c.994 0 1.686-.49 2.078-1.47.214-.537.321-1.178.321-1.92 0-1.026-.16-1.814-.478-2.366Zm11.225 3.104h-4.895v2.59h5.578V17h-7.636V6.924h7.39v1.784h-5.332v2.14h4.895v1.75Zm2.324-5.674h2.105v8.264h4.99V17h-7.095V6.924Zm14.458 8.005H93.8L93.103 17h-2.2l3.595-10.076h2.379L100.445 17h-2.283l-.65-2.071Zm-.588-1.737-1.258-3.964-1.299 3.964h2.557Zm11.655-6.268-3.37 6.289V17h-2.106v-3.787l-3.486-6.29h2.482l2.091 4.39 2.003-4.39h2.386Zm4.69 0h2.091V17h-2.091V6.924ZM125.479 17h-2.106l-4.115-7.157V17h-1.962V6.924h2.208l4.013 7.034V6.924h1.962V17Zm6.309 0h-4.341V6.924h4.341c.624.009 1.144.082 1.559.219a3.324 3.324 0 0 1 1.715 1.278c.351.501.591 1.044.718 1.627a7.79 7.79 0 0 1 .192 1.668c0 1.34-.269 2.474-.807 3.404-.729 1.253-1.855 1.88-3.377 1.88Zm1.566-7.506c-.324-.547-.964-.82-1.921-.82h-1.942v6.576h1.942c.993 0 1.686-.49 2.078-1.47.214-.537.321-1.178.321-1.92 0-1.026-.159-1.814-.478-2.366Zm10.171 3.623V6.924h2.14v6.193c0 1.071-.166 1.905-.499 2.502-.62 1.094-1.802 1.64-3.548 1.64-1.745 0-2.93-.546-3.555-1.64-.332-.597-.499-1.43-.499-2.502V6.924h2.14v6.193c0 .693.082 1.199.246 1.518.255.565.811.847 1.668.847.852 0 1.406-.282 1.661-.847.164-.32.246-.825.246-1.518Zm7.814 2.427c.497 0 .9-.055 1.21-.164.588-.21.882-.6.882-1.17 0-.332-.146-.59-.438-.772-.292-.177-.75-.335-1.374-.471l-1.066-.24c-1.048-.236-1.773-.494-2.174-.772-.679-.465-1.019-1.192-1.019-2.18 0-.903.328-1.653.985-2.25.656-.597 1.62-.895 2.891-.895 1.062 0 1.967.282 2.714.848.752.56 1.146 1.376 1.183 2.447h-2.024c-.036-.606-.3-1.037-.793-1.292-.328-.169-.736-.253-1.223-.253-.543 0-.975.11-1.299.328a1.044 1.044 0 0 0-.485.916c0 .36.159.629.478.807.205.118.643.257 1.313.417l1.736.417c.761.182 1.335.426 1.723.731.601.474.902 1.16.902 2.058 0 .92-.353 1.686-1.06 2.297-.701.606-1.695.909-2.98.909-1.313 0-2.345-.299-3.097-.896-.752-.601-1.128-1.426-1.128-2.474h2.01c.064.46.189.804.376 1.032.342.415.927.622 1.757.622Zm13.002-8.62v1.784h-3.015V17h-2.119V8.708h-3.028V6.924h8.162Zm5.516 6.125h-2.173V17h-2.058V6.924h4.942c.707.013 1.249.1 1.627.26.383.16.707.394.971.704.219.255.392.537.52.847.127.31.191.663.191 1.06 0 .478-.121.95-.362 1.415-.242.46-.641.786-1.197.977.465.187.793.454.985.8.196.342.294.866.294 1.573v.676c0 .46.018.773.054.937.055.26.183.451.383.574V17h-2.317a6.993 6.993 0 0 1-.137-.54 4.975 4.975 0 0 1-.089-.868l-.013-.937c-.01-.642-.128-1.07-.356-1.285-.223-.214-.645-.321-1.265-.321Zm1.279-1.832c.419-.192.629-.57.629-1.135 0-.61-.203-1.02-.609-1.23-.228-.119-.569-.178-1.025-.178h-2.447v2.707h2.385c.474 0 .83-.055 1.067-.164Zm4.395-4.293h2.092V17h-2.092V6.924Zm11.074 5.674h-4.894v2.59h5.578V17h-7.636V6.924h7.39v1.784h-5.332v2.14h4.894v1.75Zm5.982 2.946c.497 0 .9-.055 1.21-.164.588-.21.882-.6.882-1.17 0-.332-.146-.59-.438-.772-.291-.177-.749-.335-1.374-.471l-1.066-.24c-1.048-.236-1.773-.494-2.174-.772-.679-.465-1.019-1.192-1.019-2.18 0-.903.329-1.653.985-2.25.656-.597 1.62-.895 2.891-.895 1.062 0 1.967.282 2.714.848.752.56 1.146 1.376 1.183 2.447h-2.024c-.036-.606-.3-1.037-.793-1.292-.328-.169-.736-.253-1.223-.253-.542 0-.975.11-1.299.328a1.044 1.044 0 0 0-.485.916c0 .36.159.629.478.807.205.118.643.257 1.313.417l1.736.417c.761.182 1.335.426 1.723.731.601.474.902 1.16.902 2.058 0 .92-.353 1.686-1.06 2.297-.701.606-1.695.909-2.98.909-1.313 0-2.345-.299-3.097-.896-.752-.601-1.128-1.426-1.128-2.474h2.01c.064.46.189.804.376 1.032.342.415.927.622 1.757.622ZM20.88 0H1.122C.502 0 0 .502 0 1.122v9.408c0 .62.502 1.122 1.122 1.122h4.054v9.228A1.12 1.12 0 0 0 6.296 22h9.408c.62 0 1.122-.502 1.122-1.122v-9.223h4.053A1.12 1.12 0 0 0 22 10.534V1.122A1.12 1.12 0 0 0 20.88 0ZM1.3 1.302h9.05v9.05H1.3v-9.05ZM15.525 20.7H6.476v-9.045h9.05V20.7ZM20.7 10.35h-9.05V1.3h9.05v9.05Z"/>
  <path fill="#fff" d="M7.448 7.324a.65.65 0 0 0 .92-.92L6.291 4.327a.654.654 0 0 0-.92 0L3.288 6.404a.65.65 0 1 0 .92.92l1.617-1.617 1.623 1.617Zm7.109 0 1.618-1.617 1.617 1.617a.65.65 0 0 0 .92-.92l-2.077-2.077a.654.654 0 0 0-.92 0l-2.078 2.077a.65.65 0 0 0 .92.92Zm-5.175 7.353a.65.65 0 0 0-.92.921l2.079 2.076a.65.65 0 0 0 .92 0l2.077-2.076a.651.651 0 1 0-.92-.921l-1.617 1.619-1.62-1.62Z"/>
</svg>
